<svg width="185" height="96" viewBox="0 0 185 96" fill="none" xmlns="http://www.w3.org/2000/svg">
<path d="M185 0H0L79.8097 90.1011C86.8489 97.9663 98.2503 97.9663 105.289 90.1011L185 0Z" fill="#81B3D3"/>
<path d="M42.8296 0.696899L92.0043 58.8395L140.882 1.09514L42.8296 0.696899Z" fill="#23A9E1"/>
<path d="M120.954 17.2238C115.898 17.2238 110.941 17.3234 105.884 17.3234C111.833 10.4538 114.51 11.1507 120.954 17.2238Z" fill="white"/>
<path d="M80.1072 22.5999C88.9309 22.5999 97.7546 22.5999 106.578 22.5999C104.595 21.4052 99.9357 15.5312 97.358 17.7215C97.1597 17.9206 89.9223 8.86072 85.1635 13.2413C80.9995 17.0246 79.1158 12.7435 74.3569 15.7303C69.1024 19.3144 77.5295 21.4052 80.1072 22.5999Z" fill="white"/>
<path d="M92.3017 0H41.8381V22.4008L92.0043 83.6298L92.3017 83.2315L142.567 23.0977V0H92.3017ZM54.4292 1.79207H59.8821V18.9163L54.4292 12.4449V1.79207ZM53.6361 11.5489L48.679 5.67488V1.79207H53.6361V11.5489ZM72.7706 8.86077L67.1195 1.79207H72.7706V8.86077ZM66.2272 12.644L60.6752 1.79207H66.2272V12.644ZM60.5761 3.38501L66.0289 14.0379C63.2529 16.1286 61.3692 18.0202 60.5761 18.9163V3.38501ZM67.0203 2.88722L72.5723 9.75681C71.4818 10.3542 70.3912 11.0511 69.4989 11.6484C68.6066 12.2458 67.8135 12.8431 67.0203 13.4405V2.88722ZM73.5637 2.6881L78.3226 6.86959C76.6372 7.5665 75.0509 8.36298 73.5637 9.15945V2.6881ZM79.1157 6.57091L73.762 1.79207H79.7106V6.37179C79.4132 6.37179 79.314 6.47135 79.1157 6.57091ZM98.052 1.79207H103.009L98.052 4.18149V1.79207ZM92.3017 1.79207H96.664L92.3017 3.88281V1.79207ZM91.4094 3.78325L87.2454 1.79207H91.4094V3.78325ZM85.9566 4.28105L80.9003 1.79207H85.9566V4.28105ZM80.4046 2.38942L85.0643 4.67928C83.478 5.07752 81.8917 5.47576 80.4046 5.97355V2.38942ZM86.7497 2.38942L90.1206 3.98237C88.9308 4.08193 87.8403 4.18149 86.6506 4.38061V2.38942H86.7497ZM97.0605 2.48898V4.38061C95.97 4.18149 94.8794 4.08193 93.6897 3.98237L97.0605 2.48898ZM103.505 2.38942V6.07311C102.018 5.57532 100.431 5.07752 98.7459 4.67928L103.505 2.38942ZM104.199 1.79207H110.048L104.695 6.57091C104.496 6.47135 104.397 6.47135 104.199 6.37179V1.79207ZM117.682 1.79207H123.234L117.682 12.644V1.79207ZM111.139 1.79207H116.79L111.139 8.76121V1.79207ZM110.346 2.6881V9.15945C108.858 8.36298 107.272 7.5665 105.587 6.86959L110.346 2.6881ZM116.889 2.88722V13.3409C116.195 12.8431 115.402 12.3453 114.609 11.748C113.617 11.0511 112.428 10.3542 111.238 9.65725L116.889 2.88722ZM123.234 3.38501V18.518C122.144 17.5224 120.359 15.8299 117.781 13.9383L123.234 3.38501ZM124.027 19.3145V1.79207H129.48V13.1418L124.027 19.3145C124.126 19.4141 124.027 19.4141 124.027 19.3145ZM130.273 1.79207H135.23V6.47135L130.273 12.2458V1.79207ZM47.985 1.79207V4.67928L45.5064 1.79207H47.985ZM60.6752 19.9118L60.7744 20.0114C60.7744 20.0114 64.3435 16.1286 69.8955 12.4449C75.15 8.96033 83.0814 4.8784 92.0043 4.97796C100.828 4.97796 108.958 9.15945 114.113 12.644C119.665 16.3277 123.333 20.111 123.432 20.2105L119.566 24.6907C112.725 25.5867 107.768 30.7638 101.125 29.6687C97.7545 29.0713 97.6554 27.1797 96.664 25.1885C95.97 23.6951 94.7803 23.8942 93.194 23.2969C91.806 22.6995 90.9137 21.6044 88.0386 22.2017C85.56 22.7991 85.2626 26.6819 82.09 26.4828C80.4046 26.3832 80.3054 23.9938 77.926 21.007C71.68 13.4405 65.8306 14.5356 61.8649 21.5048L91.9051 57.2466L60.6752 19.9118ZM135.924 5.47576V1.79207H139.097L135.924 5.47576Z" fill="#491213"/>
<path d="M87.9395 70.5876L92.0043 64.1162L95.97 70.5876L92.0043 77.0589L87.9395 70.5876Z" fill="#23A9E1"/>
<path d="M64.9383 32.1577C65.434 32.755 65.8306 33.452 65.7315 34.2484C65.6323 34.8458 64.8392 35.8414 65.434 36.0405C66.128 35.1445 66.9212 34.1489 67.6152 33.2528C67.0203 33.0537 62.2615 27.4784 62.2615 26.7815C61.1709 27.3788 60.1795 27.9762 59.0889 28.474C59.2872 29.1709 60.3778 28.474 60.9726 28.474C61.7658 28.5736 62.3606 29.0714 62.9555 29.6687C61.27 31.0625 57.1061 34.6467 56.6103 34.7462C56.4121 34.7462 55.5198 34.1489 55.5198 34.6467C55.5198 34.9454 56.4121 35.6423 56.5112 35.8414C57.2052 36.7374 57.9983 37.6335 58.6923 38.5295C59.2872 38.2308 58.5932 37.8326 58.8906 37.3348C59.188 36.9365 63.7486 33.0537 64.9383 32.1577Z" fill="white"/>
<path d="M59.6837 25.1885C60.0803 25.089 60.2786 25.5868 60.6751 25.089C59.882 24.0934 59.0889 23.1973 58.2957 22.2017C57.8992 21.8035 57.5026 21.3057 57.6017 22.2017C57.7009 22.7991 51.554 27.8766 51.1575 27.9762C50.6617 28.1753 50.3643 27.5779 50.0669 28.0757C50.7609 28.9718 51.554 29.7682 52.248 30.6643C52.4463 30.963 52.7437 31.2616 52.942 31.5603C53.2395 31.859 53.1403 30.8634 53.1403 30.963C53.0412 30.4652 53.636 30.0669 54.0326 29.7682C55.5197 28.474 59.2872 25.1885 59.6837 25.1885Z" fill="white"/>
<path d="M50.9592 24.2925C49.1746 24.7902 47.2909 24.0933 46.7952 22.3013C46.2995 20.5092 47.3901 18.518 48.8772 17.5224C50.2652 16.5268 52.4463 16.5268 53.2395 18.3189C53.5369 19.1154 53.4378 20.0114 53.1403 20.8079C52.942 21.3057 52.5455 21.8035 53.2395 22.1022C54.1318 21.007 54.9249 19.9118 55.8172 18.8167C54.7266 18.2193 54.33 17.1242 53.5369 16.2282C52.6446 15.133 51.4549 14.1374 50.0669 13.9383C47.1918 13.5401 44.5149 16.5268 44.3166 19.1154C44.2175 20.6088 44.7132 21.903 45.5064 23.0977C46.2995 24.0933 47.3901 24.6907 47.8858 25.8854C48.1832 25.985 50.5626 24.8898 51.1575 24.5911C51.0583 24.4916 51.0583 24.392 50.9592 24.2925C50.2652 24.4916 50.9592 24.2925 50.9592 24.2925Z" fill="white"/>
<path d="M89.9222 60.5321C88.7324 59.7356 85.9565 55.8528 85.3616 55.2554C85.2625 55.1559 85.1633 54.9567 85.0642 54.8572C85.0642 54.8572 84.7667 55.0563 84.8659 55.0563C84.6676 55.1559 84.965 55.6537 84.7667 55.9523C83.9736 57.147 79.0165 60.9303 78.8182 61.1294C78.2233 61.5277 77.6285 60.9303 77.3311 61.4281C78.0251 62.3241 80.107 64.9127 80.3053 65.0122C80.801 65.1118 80.4045 64.2158 80.5036 64.0166C80.6028 63.6184 83.0813 61.6272 83.9736 60.8307C84.271 60.5321 84.6676 61.229 84.8659 61.5276C85.1633 62.0254 85.3616 62.5232 85.1633 63.1206C85.0642 63.5188 84.4693 64.0166 84.8659 64.3153C85.4607 63.6184 87.2453 61.5276 87.4436 61.3285C87.741 61.0299 86.8487 61.3285 86.9479 61.229C86.5513 61.4281 86.2539 61.4281 85.8573 61.229C85.7582 61.1294 84.7667 60.1338 84.8659 60.0343C85.2625 59.636 85.8573 59.0387 86.353 58.9391C87.2453 58.74 87.9393 60.4325 88.0384 61.0299C88.1376 61.6272 88.1376 62.2246 87.9393 62.8219C87.8402 63.2202 87.4436 63.5188 87.9393 63.718C88.6333 62.7224 89.3273 61.8263 90.0213 60.8307C90.2196 60.6316 90.0213 60.5321 89.9222 60.5321C89.823 60.4325 90.1204 60.5321 89.9222 60.5321Z" fill="white"/>
<path d="M79.8097 56.3505C81.9908 54.4589 82.2883 51.273 80.6028 49.0827C78.7191 46.5937 75.2491 45.9963 72.8697 47.9875C70.6886 49.8791 70.3912 52.9655 72.0766 55.2553C74.0594 57.9434 77.232 58.2421 79.8097 56.3505C80.9994 55.4545 79.7106 56.45 79.8097 56.3505ZM79.314 51.6712C78.7191 53.1646 77.1328 54.7575 75.6457 55.3549C73.8611 56.0518 72.5723 54.5584 73.2663 52.7664C73.9603 51.273 75.4474 49.68 76.9346 49.0827C78.8183 48.3857 80.008 49.9787 79.314 51.6712C78.9174 52.5672 79.4131 51.4721 79.314 51.6712Z" fill="white"/>
<path d="M73.4646 41.8148C73.9603 41.9144 74.3569 42.3126 74.7535 41.8148C74.0595 40.9188 73.2663 40.0228 72.5723 39.2263C71.9775 39.525 72.5723 39.7241 72.374 40.2219C72.1758 40.6201 69.7963 41.0184 69.2015 41.1179C69.3998 40.5206 70.0938 38.5294 70.3912 38.3303C70.8869 37.932 71.2835 38.7285 71.68 38.2307C70.7878 37.1355 69.8955 36.0404 69.0032 34.9452C68.7058 34.547 68.4083 33.9496 68.0118 34.2483C68.0118 34.2483 68.0118 35.7417 67.9126 35.9408C67.8135 36.1399 67.0203 39.525 66.0289 40.421C65.5332 40.8192 63.8478 42.3126 63.3521 42.5117C62.8564 42.7109 62.5589 41.9144 62.1624 42.5117C62.9555 43.5073 63.8478 44.5029 64.6409 45.4985C64.7401 45.5981 65.2358 46.3946 65.4341 46.3946C65.9298 46.4941 65.5332 45.4985 65.5332 45.2994C65.7315 44.9012 68.0118 42.6113 69.0032 42.4122C70.1929 42.2131 71.9775 41.7153 73.4646 41.8148C73.762 41.9144 73.068 41.8148 73.4646 41.8148Z" fill="white"/>
<path d="M67.2186 22.7991C63.2529 22.6 64.8392 18.8167 67.6152 18.0202C70.1929 17.2238 75.6457 19.7127 77.3311 21.4053C74.5551 22.3013 70.986 22.1022 68.0117 22.3013C67.8135 19.1154 67.0203 20.2105 67.2186 22.7991Z" fill="#DC6243"/>
<path d="M76.6372 35.244C68.111 35.1444 73.8612 22.0026 76.7364 22.7991C80.1072 23.8942 79.7106 35.3435 76.6372 35.244Z" fill="#DC6243"/>
<path d="M82.6848 30.9629C81.8917 33.4519 80.3054 33.9497 80.5037 30.8633C80.702 27.3788 82.9823 28.1752 85.3617 26.881C87.3445 25.7858 88.4351 21.7039 91.9051 24.0933C93.4914 25.1885 95.2759 24.2924 95.7717 25.8854C95.7717 25.7858 91.3102 36.14 93.7888 36.14C88.8317 36.14 91.0128 30.266 92.8965 26.2836C91.1119 27.1796 88.1377 32.9541 90.5171 33.8501C89.2282 35.5426 85.3617 37.7329 83.3788 36.14C81.8917 35.0448 82.6848 32.9541 82.6848 30.9629Z" fill="#DC6243"/>
<path d="M86.7497 40.5206C83.2797 41.5162 78.7191 39.3259 84.2711 38.2308C87.7411 37.5339 91.4094 38.9277 86.7497 40.5206C86.8488 40.5206 86.6505 40.5206 86.7497 40.5206Z" fill="#DC6243"/>
<path d="M91.112 40.4211C90.418 38.7286 91.7068 36.837 93.7888 38.2308C95.5734 39.4255 92.8965 41.3171 91.112 40.4211Z" fill="#DC6243"/>
<path d="M88.1377 45.0008C85.7583 44.3039 77.7277 44.4035 82.9823 42.2132C84.6677 41.6158 93.0948 42.4123 88.1377 45.0008Z" fill="#DC6243"/>
<path d="M98.5477 48.2862C97.1597 47.0915 95.6725 46.992 94.3837 48.2862C92.5991 45.0008 86.1548 46.0959 83.0814 45.5981C84.6677 49.6801 97.7545 50.4765 98.5477 48.2862Z" fill="#DC6243"/>
<path d="M96.6639 50.7753C93.4914 50.6757 90.0214 50.1779 87.1462 50.8748C89.0299 51.3726 93.4914 52.6669 89.3274 53.762C90.8145 55.9523 93.2931 55.7532 94.8794 53.8616C94.1854 53.5629 93.8879 53.1647 93.2931 52.7664C94.8794 52.4678 96.4656 51.5717 96.6639 50.7753Z" fill="#DC6243"/>
<path d="M100.233 46.8924C94.9785 43.8061 96.2673 41.5162 100.63 39.3259C102.91 38.2307 107.867 34.1488 109.949 35.4431C106.677 39.3259 103.406 43.1091 100.233 46.8924Z" fill="#DC6243"/>
<path d="M96.4656 39.6246C92.0042 35.0449 103.108 35.4431 104.893 33.8502C106.182 34.2484 115.6 25.5867 117.88 26.1841C116.195 28.0757 112.725 34.2484 110.147 34.2484C108.164 34.2484 106.182 33.9497 104.694 35.3435C102.513 37.4343 98.8451 38.4299 96.4656 39.6246Z" fill="#F49774"/>
<path d="M97.9528 34.0492C95.4742 35.3435 93.1939 30.1664 97.457 30.6642C100.233 30.9629 103.108 30.4651 105.686 30.8633C103.703 33.1532 101.026 34.4475 97.9528 34.0492Z" fill="#F4B1A4"/>
<path d="M110.445 52.2685C110.643 52.8659 110.742 53.5628 110.643 54.2597C110.544 55.1558 109.652 57.147 108.462 56.5496C107.272 55.9522 106.281 54.8571 105.289 53.9611C106.083 53.065 106.777 52.2685 108.165 52.6668C108.561 52.7663 108.859 52.6668 108.462 52.3681C108.065 52.169 105.389 50.3769 105.19 50.576C104.893 50.8747 105.686 51.4721 105.389 52.0694C105.19 52.4677 104.794 52.8659 104.496 53.2641C103.802 52.6668 102.613 51.9699 103.406 50.9743C103.901 50.2774 104.695 49.7796 105.488 49.68C106.083 49.5804 107.272 50.0782 107.471 49.4809C106.38 48.9831 105.289 48.4853 104.199 47.8879C104.397 48.6844 100.927 52.3681 100.134 53.3637C100.035 53.4633 99.4401 53.9611 99.4401 54.1602C99.4401 54.5584 100.035 54.2597 100.134 54.2597C100.63 54.0606 106.876 59.3373 107.074 59.7355C107.173 60.0342 106.876 60.3328 107.074 60.4324C107.074 60.4324 107.272 60.6315 107.371 60.6315C107.768 60.1337 111.833 54.658 112.725 54.4589C111.932 53.2641 111.139 52.0694 110.346 50.7752C109.751 51.0738 110.346 51.7708 110.445 52.2685Z" fill="white"/>
<path d="M104.298 58.939C102.216 57.6447 98.746 60.2333 98.2503 60.4324C97.2589 60.9302 96.4657 59.9346 96.9615 58.939C97.4572 58.1425 98.3494 57.7443 99.2417 57.6447C99.5392 57.6447 100.531 57.8439 100.729 57.6447C100.828 57.4456 100.927 57.4456 100.729 57.3461C99.8366 56.7487 99.0434 56.1514 98.1512 55.6536C97.9529 56.7487 96.7632 57.3461 96.0692 58.043C95.276 58.939 94.582 59.9346 94.582 61.2289C94.582 62.324 95.276 63.3196 96.2675 63.917C97.358 64.5143 98.5477 64.0165 99.5392 63.4192C100.134 63.0209 100.828 62.5231 101.423 62.2245C102.414 61.7267 103.703 62.1249 103.406 63.5187C103.108 64.6139 102.018 65.6095 101.026 65.8086C100.431 66.0077 99.7374 65.9082 99.1426 65.709C98.746 65.6095 98.1512 65.0121 97.9529 65.6095C99.1426 66.406 100.233 67.302 101.423 68.0985C101.522 67.302 101.919 67.0033 102.513 66.5055C103.207 65.9082 103.901 65.2112 104.496 64.4148C105.686 62.7223 106.083 60.3328 104.298 58.939Z" fill="white"/>
<path d="M104.298 58.939C105.289 59.5364 103.703 58.4412 104.298 58.939V58.939Z" fill="white"/>
<path d="M140.683 19.5136C139.989 20.2105 132.355 17.2237 131.761 16.7259C131.463 16.6263 131.463 15.4316 131.067 15.9294C130.67 16.4272 130.273 16.925 129.877 17.4228C129.48 17.9206 129.084 18.4184 128.588 18.9162C128.291 19.2149 128.092 19.414 128.588 19.6131C129.381 19.2149 133.942 26.8809 133.545 28.0757C132.851 28.4739 126.704 22.9981 126.506 22.6995C126.407 22.5999 126.803 21.7039 126.308 21.8034C126.109 21.8034 125.614 22.6995 125.415 22.8986C125.118 23.2968 124.821 23.5955 124.523 23.9937C124.821 24.4915 125.019 23.9937 125.515 23.9937C125.911 24.0933 127.299 25.288 127.696 25.6862C127.002 25.6862 125.019 25.7858 124.821 25.7858C123.928 25.8854 124.424 25.0889 123.829 24.8898C123.036 25.7858 122.342 26.6818 121.549 27.6774C121.152 28.1752 120.657 28.7726 120.26 29.2704C120.161 29.3699 120.26 29.2704 120.26 29.3699C120.557 29.6686 120.359 29.569 120.855 29.3699C121.351 29.1708 127.398 34.2483 127.597 34.547C127.993 34.9452 127.398 35.5426 127.993 35.7417C128.588 35.0448 129.183 34.2483 129.778 33.5514C129.877 33.4519 129.877 33.4519 129.778 33.3523C129.381 32.9541 129.282 33.5514 128.786 33.5514C128.291 33.4519 124.424 30.1664 122.937 28.9717C124.721 28.8721 130.174 28.673 131.067 28.673C131.364 28.673 132.157 29.569 132.157 29.8677C132.058 30.266 131.661 30.4651 132.256 30.6642C132.752 30.0668 133.248 29.569 133.743 28.9717L133.942 28.673C134.041 28.5735 134.041 28.5735 134.14 28.3743L134.338 28.1752C134.735 27.6774 136.123 26.184 135.925 26.0845C135.429 25.6862 135.231 26.5823 134.636 25.9849C134.338 25.7858 133.446 24.1928 133.248 23.7946C132.95 23.3964 133.843 22.8986 134.239 22.6995C135.032 22.2017 137.412 21.5047 137.709 22.9981C137.709 23.2968 137.412 23.4959 137.61 23.695C137.61 23.695 137.808 23.8942 137.907 23.8942C138.106 23.695 140.287 21.1065 141.179 19.9118C140.882 19.7127 140.782 19.6131 140.683 19.5136ZM133.347 21.7039C133.446 21.7039 133.545 21.6043 133.347 21.7039C133.049 21.903 132.653 22.2017 132.355 22.5003C131.86 21.6043 131.364 20.7083 130.769 19.8122C131.959 20.31 133.149 20.8078 134.239 21.3056C134.041 21.4052 133.743 21.5047 133.347 21.7039Z" fill="white"/>
<path d="M123.73 32.8545C121.351 30.8634 118.178 31.4607 116.195 33.651C114.311 35.9409 114.51 39.3259 116.79 41.2175C119.07 43.1091 122.441 42.6113 124.325 40.421C126.209 38.1312 126.109 34.7462 123.73 32.8545ZM123.433 39.4255C123.433 39.4255 123.433 39.525 123.433 39.4255C122.144 40.7197 120.062 39.525 118.971 38.7285C117.881 37.9321 115.898 36.14 117.087 34.6466C118.178 33.3523 120.161 34.4475 121.251 35.1444C122.441 35.9409 124.622 37.7329 123.532 39.3259C123.631 39.2263 123.631 39.2263 123.433 39.4255Z" fill="white"/>
<path d="M123.73 32.8545C124.92 33.8501 123.433 32.6554 123.73 32.8545V32.8545Z" fill="white"/>
<path d="M123.432 39.5254C123.432 39.4254 123.432 39.4254 123.432 39.5254C123.532 39.4254 123.532 39.4254 123.532 39.4254C123.432 39.4254 123.432 39.5254 123.432 39.5254Z" fill="white"/>
<path d="M117.187 41.9144C117.286 42.014 117.484 42.2131 117.187 41.9144C114.311 39.7241 110.941 40.3215 108.759 43.0096C107.768 44.2043 106.777 45.399 105.785 46.5937C106.182 47.0915 106.578 46.4942 107.074 46.7928C107.471 47.0915 113.221 51.8704 113.32 52.169C113.518 52.6668 113.023 52.6668 113.419 53.0651C113.617 53.1646 117.881 47.888 118.277 46.8924C119.169 45.1003 118.575 43.2087 117.187 41.9144ZM115.898 48.6845C115.699 48.9831 115.898 48.784 115.204 49.3814C114.906 49.6801 108.859 44.7021 109.057 44.503C109.85 43.6069 111.635 42.91 112.626 43.2087C114.807 43.7065 117.781 46.3946 115.898 48.6845Z" fill="white"/>
</svg>
